<?xml version="1.0" standalone="no"?>
<!DOCTYPE svg PUBLIC "-//W3C//DTD SVG 20010904//EN"
 "http://www.w3.org/TR/2001/REC-SVG-20010904/DTD/svg10.dtd">
<svg version="1.0" xmlns="http://www.w3.org/2000/svg"
 width="1080.000000pt" height="1080.000000pt" viewBox="0 0 1080.000000 1080.000000"
 preserveAspectRatio="xMidYMid meet">

<g transform="translate(0.000000,1080.000000) scale(0.100000,-0.100000)"
fill="#000000" stroke="none">
<path d="M1765 7682 c-73 -6 -99 -15 -136 -49 -74 -67 -69 106 -69 -2235 0
-1546 3 -2111 11 -2145 15 -59 71 -117 124 -131 52 -14 3786 -24 3900 -11 317
37 599 173 925 446 370 310 682 695 946 1168 194 348 337 759 408 1170 44 261
51 352 50 685 0 347 -15 502 -75 805 -36 175 -63 250 -102 279 l-28 21 -2962
0 c-1629 0 -2975 -1 -2992 -3z m4772 -1744 c143 -47 262 -163 303 -296 65
-207 13 -446 -126 -586 -112 -112 -281 -158 -455 -126 -223 42 -379 257 -379
525 0 245 120 412 350 486 82 27 221 25 307 -3z m-3134 -12 c49 -20 84 -68 97
-133 13 -63 9 -774 -4 -805 -4 -10 -18 -20 -29 -24 -37 -12 -128 -5 -153 11
-24 15 -24 16 -24 225 l0 210 -212 -2 -213 -3 -3 -70 c-4 -98 23 -257 58 -332
26 -56 27 -63 11 -63 -48 0 -144 107 -192 215 -94 213 -85 545 19 675 31 38
96 80 125 80 21 0 21 -20 2 -85 -9 -27 -18 -98 -22 -157 l-6 -108 65 0 c36 0
133 -3 216 -7 l152 -6 0 146 c0 153 -4 177 -26 177 -20 0 -17 14 9 37 39 36
78 41 130 19z m1120 -15 c17 -16 18 -43 17 -358 0 -187 -5 -354 -10 -372 -26
-93 -113 -185 -209 -222 -85 -34 -275 -39 -368 -10 -83 26 -154 77 -194 139
-56 88 -59 115 -59 467 0 311 1 323 21 349 19 24 27 26 90 26 95 0 109 -14
110 -112 1 -40 4 -188 8 -329 l6 -256 28 -42 c30 -45 109 -91 157 -91 46 0
100 21 137 53 67 59 68 65 68 418 0 295 1 318 19 337 10 12 28 23 40 25 39 9
121 -5 139 -22z m469 1 c14 -12 39 -57 58 -100 66 -154 171 -352 186 -352 10
0 44 61 95 168 45 92 94 195 111 230 35 74 50 82 149 82 60 0 73 -3 94 -24 30
-30 31 -45 45 -519 8 -279 8 -393 0 -408 -24 -44 -113 -53 -157 -15 -27 23
-28 27 -34 157 -4 74 -8 216 -8 317 -1 100 -4 182 -9 182 -4 0 -52 -90 -107
-201 -55 -111 -110 -212 -122 -225 -31 -34 -81 -32 -116 4 -14 15 -71 119
-126 232 -55 113 -101 203 -102 200 0 -3 -4 -145 -8 -316 -8 -346 -9 -352 -76
-374 -41 -14 -92 -1 -120 30 -16 18 -17 43 -6 402 15 487 16 504 48 535 22 23
30 25 103 21 65 -2 83 -7 102 -26z m-2363 -263 c-18 -83 -6 -275 25 -394 50
-194 125 -308 232 -352 50 -20 56 -39 18 -53 -58 -23 -173 -5 -271 41 -96 46
-177 151 -190 248 -6 46 13 135 32 151 11 9 16 3 25 -32 31 -125 116 -271 183
-316 38 -25 97 -55 97 -49 0 1 -35 38 -78 82 -90 92 -130 166 -157 288 -19 86
-17 262 4 328 10 34 79 124 87 116 3 -2 -1 -28 -7 -58z"/>
<path d="M6295 5808 c-32 -11 -92 -52 -113 -78 -26 -31 -60 -107 -71 -158 -40
-190 40 -421 170 -488 125 -64 267 11 330 176 103 271 -19 561 -236 559 -27 0
-63 -5 -80 -11z"/>
</g>
</svg>
