<?xml version="1.0" standalone="no"?>
<!DOCTYPE svg PUBLIC "-//W3C//DTD SVG 20010904//EN"
 "http://www.w3.org/TR/2001/REC-SVG-20010904/DTD/svg10.dtd">
<svg version="1.0" xmlns="http://www.w3.org/2000/svg"
 width="24.000000pt" height="24.000000pt" viewBox="0 0 24.000000 24.000000"
 preserveAspectRatio="xMidYMid meet">

<g transform="translate(0.000000,24.000000) scale(0.100000,-0.100000)"
fill="#000000" stroke="none">
<path d="M7 234 c-4 -4 -7 -43 -7 -86 l0 -78 50 0 c42 0 50 -3 50 -18 0 -24
31 -52 57 -52 21 0 53 29 53 48 0 6 7 15 15 20 13 7 15 24 13 88 l-3 79 -111
3 c-60 1 -113 -1 -117 -4z m213 -29 c0 -12 -18 -15 -100 -15 -82 0 -100 3
-100 15 0 12 18 15 100 15 82 0 100 -3 100 -15z m0 -75 c0 -54 -3 -58 -26 -35
-9 8 -26 15 -38 15 -13 0 -29 -7 -36 -15 -8 -9 -30 -15 -56 -15 l-44 0 0 50 0
50 100 0 100 0 0 -50z m-36 -52 c21 -30 4 -60 -32 -56 -34 4 -44 45 -16 65 24
18 30 17 48 -9z"/>
<path d="M35 150 c-4 -6 7 -10 25 -10 18 0 29 4 25 10 -3 6 -15 10 -25 10 -10
0 -22 -4 -25 -10z"/>
<path d="M35 110 c3 -5 22 -10 41 -10 19 0 34 5 34 10 0 6 -18 10 -41 10 -24
0 -38 -4 -34 -10z"/>
<path d="M134 55 c-1 -18 3 -22 21 -21 16 1 22 7 22 22 1 31 -41 30 -43 -1z"/>
</g>
</svg>
