<?xml version="1.0" standalone="no"?>
<!DOCTYPE svg PUBLIC "-//W3C//DTD SVG 20010904//EN"
 "http://www.w3.org/TR/2001/REC-SVG-20010904/DTD/svg10.dtd">
<svg version="1.0" xmlns="http://www.w3.org/2000/svg"
 width="1641.000000pt" height="2187.000000pt" viewBox="0 0 1641.000000 2187.000000"
 preserveAspectRatio="xMidYMid meet">

<g transform="translate(0.000000,2187.000000) scale(0.100000,-0.100000)"
fill="#000000" stroke="none">
<path d="M823 21356 c-99 -31 -182 -102 -230 -196 l-28 -55 -3 -4515 c-2
-3201 0 -4595 8 -4790 110 -2705 926 -4673 2395 -5775 1084 -814 2619 -1306
4349 -1396 260 -13 1030 -7 1246 10 994 81 1833 260 2615 558 1178 450 2027
1095 2644 2008 601 890 993 2010 1175 3365 93 687 116 1143 116 2298 l0 822
-2495 0 -2495 0 0 -895 c0 -493 -5 -973 -10 -1068 -42 -693 -162 -1218 -385
-1672 -188 -386 -412 -651 -719 -856 -698 -465 -1654 -464 -2348 2 -296 199
-518 459 -697 817 -232 463 -358 995 -401 1692 -6 107 -10 1785 -10 4745 0
2986 -4 4595 -10 4623 -27 113 -100 206 -205 258 l-60 29 -2205 2 c-1805 1
-2213 -1 -2247 -11z"/>
<path d="M10385 21349 c-108 -34 -191 -114 -240 -227 -20 -47 -20 -69 -23
-3254 l-2 -3208 2495 0 2495 0 0 1400 0 1400 -62 0 c-183 0 -500 36 -723 81
-1526 311 -2733 1518 -3044 3044 -45 223 -81 540 -81 723 l0 62 -377 -1 c-346
0 -383 -2 -438 -20z"/>
<path d="M15647 3159 c-93 -22 -184 -95 -228 -184 -21 -43 -24 -64 -24 -150 0
-105 11 -140 68 -217 57 -77 201 -136 302 -123 115 14 230 98 278 203 20 43
22 67 25 265 l3 217 -193 -1 c-106 -1 -210 -5 -231 -10z"/>
<path d="M6485 2690 c-241 -25 -435 -113 -595 -270 -161 -158 -239 -320 -271
-559 -21 -160 10 -378 74 -523 151 -341 491 -548 897 -548 193 0 335 37 477
126 86 54 196 161 257 252 l45 67 -117 59 c-64 32 -140 69 -169 82 l-52 23
-31 -50 c-82 -126 -258 -219 -414 -219 -138 1 -296 68 -395 167 -119 121 -174
259 -174 443 0 187 55 325 177 445 108 107 246 164 396 165 155 0 328 -93 411
-219 l31 -49 166 81 c92 44 168 81 170 82 7 5 -87 134 -136 187 -179 193 -453
287 -747 258z"/>
<path d="M563 2023 c4 -723 0 -689 77 -848 92 -192 265 -315 514 -366 137 -28
408 -23 530 10 330 91 505 305 536 657 6 71 10 333 8 654 l-3 535 -197 3 -198
2 0 -552 c0 -304 -5 -586 -10 -627 -10 -79 -42 -159 -86 -217 -107 -140 -369
-185 -559 -95 -118 55 -194 163 -215 306 -5 40 -10 307 -10 628 l0 557 -195 0
-196 0 4 -647z"/>
<path d="M3250 2495 l0 -175 435 0 c239 0 435 -2 435 -4 0 -3 -196 -270 -435
-593 l-434 -588 -1 -157 0 -158 705 0 705 0 0 170 0 170 -445 0 c-245 0 -445
2 -445 5 0 3 196 271 435 595 l435 591 0 159 0 160 -695 0 -695 0 0 -175z"/>
<path d="M8881 2652 c-5 -10 -165 -420 -356 -912 -191 -492 -349 -901 -352
-907 -4 -10 44 -13 220 -13 l224 0 27 75 c15 41 40 111 57 155 l31 80 398 0
399 0 19 -52 c11 -29 36 -99 57 -155 l37 -103 225 0 c123 0 222 3 220 8 -3 4
-161 412 -352 907 -191 495 -351 908 -356 918 -9 15 -31 17 -249 17 -219 0
-240 -2 -249 -18z m396 -779 l141 -388 -144 -3 c-79 -1 -209 -1 -288 0 l-143
3 140 388 c77 213 143 387 147 387 4 0 70 -174 147 -387z"/>
<path d="M10890 1746 l0 -926 195 0 195 0 2 328 3 327 144 0 144 0 311 -557
311 -557 223 -1 c122 0 222 3 222 6 0 3 -149 260 -330 572 -182 312 -331 571
-333 576 -1 4 23 17 53 29 161 59 279 191 325 364 21 77 21 249 0 328 -54 207
-199 349 -420 411 -52 15 -129 18 -552 22 l-493 4 0 -926z m900 564 c112 -31
183 -124 183 -239 0 -79 -23 -130 -82 -184 -65 -59 -111 -67 -378 -67 l-233 0
0 250 0 250 238 0 c130 0 253 -5 272 -10z"/>
<path d="M13400 1746 l0 -926 413 0 c311 0 436 4 510 15 384 58 661 295 759
650 18 68 22 106 22 255 0 202 -15 274 -85 420 -122 257 -342 419 -659 486
-59 12 -168 17 -517 21 l-443 5 0 -926z m884 559 c110 -23 189 -66 265 -142
78 -80 114 -143 141 -249 56 -217 0 -446 -144 -589 -129 -129 -261 -167 -567
-163 l-184 3 -3 578 -2 577 212 0 c148 0 234 -5 282 -15z"/>
</g>
</svg>
